<svg width="29" height="29" viewBox="0 0 29 29" fill="none" xmlns="http://www.w3.org/2000/svg">
<circle cx="14.5" cy="14.5" r="14" fill="white" stroke="#101010"/>
<path d="M14.4964 6.7487C16.9 6.7487 17.1821 6.75942 18.1321 6.80229C19.0107 6.84158 19.4857 6.98804 19.8036 7.11306C20.225 7.27738 20.525 7.47028 20.8393 7.78462C21.1536 8.09897 21.35 8.39903 21.5107 8.82054C21.6321 9.13846 21.7821 9.61356 21.8214 10.4923C21.8643 11.4425 21.875 11.7247 21.875 14.1287C21.875 16.5328 21.8643 16.815 21.8214 17.7652C21.7821 18.6439 21.6357 19.119 21.5107 19.4369C21.3464 19.8584 21.1536 20.1585 20.8393 20.4729C20.525 20.7872 20.225 20.9837 19.8036 21.1444C19.4857 21.2659 19.0107 21.4159 18.1321 21.4552C17.1821 21.4981 16.9 21.5088 14.4964 21.5088C12.0929 21.5088 11.8107 21.4981 10.8607 21.4552C9.98214 21.4159 9.50714 21.2694 9.18929 21.1444C8.76786 20.9801 8.46786 20.7872 8.15357 20.4729C7.83929 20.1585 7.64286 19.8584 7.48214 19.4369C7.36071 19.119 7.21071 18.6439 7.17143 17.7652C7.12857 16.815 7.11786 16.5328 7.11786 14.1287C7.11786 11.7247 7.12857 11.4425 7.17143 10.4923C7.21071 9.61356 7.35714 9.13846 7.48214 8.82054C7.64643 8.39903 7.83929 8.09897 8.15357 7.78462C8.46786 7.47028 8.76786 7.27381 9.18929 7.11306C9.50714 6.99161 9.98214 6.84158 10.8607 6.80229C11.8107 6.75585 12.0964 6.7487 14.4964 6.7487ZM14.4964 5.12695C12.0536 5.12695 11.7464 5.13767 10.7857 5.18054C9.82857 5.2234 9.175 5.377 8.60357 5.59848C8.01071 5.82709 7.51071 6.13787 7.01071 6.63797C6.51071 7.13807 6.20357 7.64174 5.97143 8.23114C5.75 8.80268 5.59643 9.45638 5.55357 10.4173C5.51071 11.3746 5.5 11.6818 5.5 14.1252C5.5 16.5685 5.51071 16.8757 5.55357 17.8366C5.59643 18.794 5.75 19.4477 5.97143 20.0228C6.2 20.6157 6.51071 21.1158 7.01071 21.6159C7.51071 22.116 8.01429 22.4232 8.60357 22.6554C9.175 22.8769 9.82857 23.0305 10.7893 23.0734C11.75 23.1162 12.0536 23.127 14.5 23.127C16.9464 23.127 17.25 23.1162 18.2107 23.0734C19.1679 23.0305 19.8214 22.8769 20.3964 22.6554C20.9893 22.4268 21.4893 22.116 21.9893 21.6159C22.4893 21.1158 22.7964 20.6122 23.0286 20.0228C23.25 19.4512 23.4036 18.7975 23.4464 17.8366C23.4893 16.8757 23.5 16.5721 23.5 14.1252C23.5 11.6783 23.4893 11.3746 23.4464 10.4137C23.4036 9.45638 23.25 8.80268 23.0286 8.22757C22.8 7.63459 22.4893 7.13449 21.9893 6.6344C21.4893 6.1343 20.9857 5.82709 20.3964 5.5949C19.825 5.37343 19.1714 5.21983 18.2107 5.17696C17.2464 5.13767 16.9393 5.12695 14.4964 5.12695Z" fill="#101010"/>
<path d="M14.4964 6.7487C16.9 6.7487 17.1821 6.75942 18.1321 6.80229C19.0107 6.84158 19.4857 6.98804 19.8036 7.11306C20.225 7.27738 20.525 7.47028 20.8393 7.78462C21.1536 8.09897 21.35 8.39903 21.5107 8.82054C21.6321 9.13846 21.7821 9.61356 21.8214 10.4923C21.8643 11.4425 21.875 11.7247 21.875 14.1287C21.875 16.5328 21.8643 16.815 21.8214 17.7652C21.7821 18.6439 21.6357 19.119 21.5107 19.4369C21.3464 19.8584 21.1536 20.1585 20.8393 20.4729C20.525 20.7872 20.225 20.9837 19.8036 21.1444C19.4857 21.2659 19.0107 21.4159 18.1321 21.4552C17.1821 21.4981 16.9 21.5088 14.4964 21.5088C12.0929 21.5088 11.8107 21.4981 10.8607 21.4552C9.98214 21.4159 9.50714 21.2694 9.18929 21.1444C8.76786 20.9801 8.46786 20.7872 8.15357 20.4729C7.83929 20.1585 7.64286 19.8584 7.48214 19.4369C7.36071 19.119 7.21071 18.6439 7.17143 17.7652C7.12857 16.815 7.11786 16.5328 7.11786 14.1287C7.11786 11.7247 7.12857 11.4425 7.17143 10.4923C7.21071 9.61356 7.35714 9.13846 7.48214 8.82054C7.64643 8.39903 7.83929 8.09897 8.15357 7.78462C8.46786 7.47028 8.76786 7.27381 9.18929 7.11306C9.50714 6.99161 9.98214 6.84158 10.8607 6.80229C11.8107 6.75585 12.0964 6.7487 14.4964 6.7487Z" fill="#101010"/>
<path d="M14.499 9.5063C11.949 9.5063 9.87756 11.5746 9.87756 14.1286C9.87756 16.6827 11.9454 18.751 14.499 18.751C17.0526 18.751 19.1204 16.6827 19.1204 14.1286C19.1204 11.5746 17.0526 9.5063 14.499 9.5063ZM14.499 17.1257C12.8418 17.1257 11.499 15.7825 11.499 14.1251C11.499 12.4676 12.8418 11.1245 14.499 11.1245C16.1561 11.1245 17.499 12.4676 17.499 14.1251C17.499 15.7825 16.1561 17.1257 14.499 17.1257Z" fill="white"/>
<path d="M19.3013 10.399C19.897 10.399 20.3799 9.91605 20.3799 9.32025C20.3799 8.72445 19.897 8.24146 19.3013 8.24146C18.7056 8.24146 18.2227 8.72445 18.2227 9.32025C18.2227 9.91605 18.7056 10.399 19.3013 10.399Z" fill="white"/>
</svg>
